<svg width="390" height="420" viewBox="0 0 390 420" fill="none" xmlns="http://www.w3.org/2000/svg">
<path d="M348.214 26.25H41.7857C18.7165 26.25 0 43.8867 0 65.625V354.375C0 376.113 18.7165 393.75 41.7857 393.75H348.214C371.283 393.75 390 376.113 390 354.375V65.625C390 43.8867 371.283 26.25 348.214 26.25ZM241.4 341.004C234.087 342.234 231.388 337.969 231.388 334.441C231.388 330.012 231.562 307.371 231.562 289.078C231.562 276.281 227.036 268.16 221.725 263.895C253.935 260.531 287.886 256.348 287.886 203.93C287.886 189 282.228 181.535 273 171.938C274.48 168.41 279.442 153.891 271.52 135.023C259.42 131.496 231.737 149.707 231.737 149.707C220.246 146.672 207.797 145.113 195.522 145.113C183.248 145.113 170.799 146.672 159.308 149.707C159.308 149.707 131.625 131.496 119.525 135.023C111.603 153.809 116.478 168.328 118.045 171.938C108.817 181.535 104.464 189 104.464 203.93C104.464 256.102 136.935 260.531 169.145 263.895C164.967 267.422 161.223 273.492 159.917 282.188C151.647 285.715 130.493 291.785 117.871 270.785C109.949 257.824 95.6719 256.758 95.6719 256.758C81.5692 256.594 94.7143 265.125 94.7143 265.125C104.116 269.227 110.732 284.977 110.732 284.977C119.176 309.34 159.569 301.137 159.569 301.137C159.569 312.539 159.743 331.078 159.743 334.441C159.743 337.969 157.132 342.234 149.732 341.004C92.2768 322.875 52.058 271.359 52.058 211.148C52.058 135.844 113.17 78.668 193.085 78.668C273 78.668 337.768 135.844 337.768 211.148C337.855 271.359 298.855 322.957 241.4 341.004ZM156 290.883C154.346 291.211 152.779 290.555 152.605 289.488C152.431 288.258 153.563 287.191 155.217 286.863C156.871 286.699 158.437 287.355 158.612 288.422C158.873 289.488 157.741 290.555 156 290.883ZM147.73 290.145C147.73 291.211 146.424 292.113 144.683 292.113C142.768 292.277 141.462 291.375 141.462 290.145C141.462 289.078 142.768 288.176 144.509 288.176C146.163 288.012 147.73 288.914 147.73 290.145ZM135.804 289.242C135.455 290.309 133.714 290.801 132.234 290.309C130.58 289.98 129.449 288.75 129.797 287.684C130.145 286.617 131.886 286.125 133.366 286.453C135.107 286.945 136.239 288.176 135.804 289.242ZM125.096 284.812C124.313 285.715 122.658 285.551 121.353 284.32C120.047 283.254 119.699 281.695 120.569 280.957C121.353 280.055 123.007 280.219 124.313 281.449C125.444 282.516 125.879 284.156 125.096 284.812ZM117.174 277.348C116.391 277.84 114.911 277.348 113.953 276.117C112.996 274.887 112.996 273.492 113.953 272.918C114.911 272.18 116.391 272.754 117.174 273.984C118.132 275.215 118.132 276.691 117.174 277.348ZM111.516 269.391C110.732 270.129 109.426 269.719 108.469 268.898C107.511 267.832 107.337 266.602 108.121 266.027C108.904 265.289 110.21 265.699 111.167 266.52C112.125 267.586 112.299 268.816 111.516 269.391ZM105.683 263.32C105.335 264.059 104.203 264.223 103.246 263.648C102.114 263.156 101.592 262.254 101.94 261.516C102.288 261.023 103.246 260.777 104.377 261.188C105.509 261.762 106.031 262.664 105.683 263.32Z" fill="url(#paint0_linear)"/>
<defs>
<linearGradient id="paint0_linear" x1="250.358" y1="154.13" x2="-121.675" y2="528.764" gradientUnits="userSpaceOnUse">
<stop stop-color="#362BFF"/>
<stop offset="1" stop-color="#65617D" stop-opacity="0"/>
</linearGradient>
</defs>
</svg>
