<svg width="390" height="420" viewBox="0 0 390 420" fill="none" xmlns="http://www.w3.org/2000/svg">
<path d="M362.143 26.25H27.7701C12.4487 26.25 0 38.1445 0 52.7461V367.254C0 381.855 12.4487 393.75 27.7701 393.75H362.143C377.464 393.75 390 381.855 390 367.254V52.7461C390 38.1445 377.464 26.25 362.143 26.25ZM117.871 341.25H60.067V165.867H117.958V341.25H117.871ZM88.9688 141.914C70.4263 141.914 55.4531 127.723 55.4531 110.332C55.4531 92.9414 70.4263 78.75 88.9688 78.75C107.424 78.75 122.484 92.9414 122.484 110.332C122.484 127.805 107.511 141.914 88.9688 141.914V141.914ZM334.547 341.25H276.743V255.938C276.743 235.594 276.308 209.426 246.71 209.426C216.589 209.426 211.975 231.574 211.975 254.461V341.25H154.172V165.867H209.625V189.82H210.408C218.156 176.039 237.047 161.52 265.165 161.52C323.665 161.52 334.547 197.859 334.547 245.109V341.25V341.25Z" fill="url(#paint0_linear)"/>
<defs>
<linearGradient id="paint0_linear" x1="258.033" y1="133.317" x2="-46.3577" y2="466.325" gradientUnits="userSpaceOnUse">
<stop stop-color="#362BFF"/>
<stop offset="1" stop-color="#65617D" stop-opacity="0.42"/>
</linearGradient>
</defs>
</svg>
